<mxfile host="app.diagrams.net" modified="2024-04-04T07:42:25.010Z" agent="Mozilla/5.0 (Windows NT 10.0; Win64; x64) AppleWebKit/537.36 (KHTML, like Gecko) Chrome/123.0.0.0 Safari/537.36" version="24.2.2" etag="5kgcti8r2MD02NTWzOmD" type="github">
  <diagram name="Page-1" id="FuatXbK8Lcq1OceFTnW_">
    <mxGraphModel>
      <root>
        <mxCell id="0" />
        <mxCell id="1" parent="0" />
      </root>
    </mxGraphModel>
  </diagram>
</mxfile>
